<?xml version="1.0" encoding="UTF-8"?>
<!DOCTYPE svg PUBLIC "-//W3C//DTD SVG 1.1//EN" "http://www.w3.org/Graphics/SVG/1.1/DTD/svg11.dtd">
<!-- Creator: CorelDRAW X6 -->
<svg xmlns="http://www.w3.org/2000/svg" xml:space="preserve" width="5in" height="0.833331in" version="1.1" style="shape-rendering:geometricPrecision; text-rendering:geometricPrecision; image-rendering:optimizeQuality; fill-rule:evenodd; clip-rule:evenodd"
viewBox="0 0 5000 833"
 xmlns:xlink="http://www.w3.org/1999/xlink">
 <defs>
  <style type="text/css">
   <![CDATA[
    .fil0 {fill:none}
    .fil2 {fill:black}
    .fil1 {fill:#FF7272}
   ]]>
  </style>
 </defs>
 <g id="Layer_x0020_1">
  <metadata id="CorelCorpID_0Corel-Layer"/>
  <rect class="fil0" width="5000" height="833"/>
  <g id="_723367328">
   <circle class="fil1" cx="2461" cy="430" r="49"/>
   <circle class="fil1" cx="3407" cy="637" r="49"/>
   <rect class="fil2" x="1850" y="147" width="98.9922" height="538.827" rx="49" ry="49"/>
   <path class="fil2" d="M2695 467c-18,73 -65,139 -136,180 -138,80 -314,32 -394,-105 -76,-131 -37,-297 86,-381 57,-42 127,37 52,90 -73,56 -96,158 -48,240 51,89 164,119 253,68 46,-26 76,-70 88,-117 5,-78 123,-75 99,27z"/>
   <rect class="fil2" x="2859" y="147" width="98.9922" height="538.827" rx="49" ry="49"/>
   <rect class="fil2" transform="matrix(1.77221E-014 0.596372 -0.66915 1.57946E-014 3676.91 147.022)" width="149" height="813" rx="75" ry="75"/>
   <rect class="fil2" x="3358" y="147" width="98.9922" height="419.839" rx="49" ry="39"/>
   <path class="fil2" d="M3983 296l-209 366c-14,24 -43,30 -68,18l0 0c-24,-12 -32,-44 -18,-68l251 -439c9,-16 27,-25 44,-25 17,0 34,9 44,25l189 328c14,24 6,55 -18,68l0 0c-24,12 -54,5 -68,-18l-148 -256z"/>
   <circle class="fil1" cx="4238" cy="636" r="49"/>
   <rect class="fil2" x="4470" y="147" width="98.9922" height="538.827" rx="49" ry="49"/>
   <circle class="fil1" cx="1234" cy="637" r="49"/>
   <path class="fil2" d="M1483 683c69,-17 131,-61 169,-127 75,-129 30,-295 -99,-369 -123,-71 -278,-34 -357,80 -8,10 -11,21 -11,31l0 0 0 1 0 0 0 211c0,28 22,50 50,50l0 0c27,0 50,-23 50,-50l0 -191c0,-3 0,-6 -1,-9 53,-65 147,-84 222,-41 83,48 112,154 64,237 -25,43 -65,71 -110,82 -74,4 -71,116 25,93z"/>
   <path class="fil2" d="M470 421c25,-29 41,-67 41,-108 0,-220 -344,-220 -344,0 0,39 14,75 37,104 -5,7 -32,35 -37,75 -10,75 83,70 95,20 3,-13 9,-26 20,-37 29,-29 75,-28 105,1l1 1 1 1c29,30 29,76 1,105 -10,10 -19,20 -31,25 -56,25 -3,99 55,73 16,-8 30,-19 44,-32 28,-28 45,-64 49,-101 0,-2 0,-3 0,-5l0 0 0 0c4,-49 -10,-90 -35,-121zm-199 -143c4,-8 10,-15 17,-21 14,-12 31,-19 51,-19 20,0 37,7 51,19 7,6 12,12 17,21 6,11 9,23 9,36 0,42 -34,76 -77,76 -43,0 -77,-34 -77,-76 0,-13 3,-26 9,-36z"/>
   <circle class="fil1" cx="225" cy="635" r="49"/>
   <path class="fil2" d="M971 421c25,-29 41,-67 41,-108 0,-220 -344,-220 -344,0 0,39 14,75 37,104 -5,7 -32,35 -37,75 -10,75 83,70 95,20 3,-13 9,-26 20,-37 29,-29 75,-28 105,1l1 1 1 1c29,30 29,76 1,105 -10,10 -19,20 -31,25 -56,25 -3,99 55,73 16,-8 30,-19 44,-32 28,-28 45,-64 49,-101 0,-2 0,-3 0,-5l0 0 0 0c4,-49 -10,-90 -35,-121zm-199 -143c4,-8 10,-15 17,-21 14,-12 31,-19 51,-19 20,0 37,7 51,19 7,6 12,12 17,21 6,11 9,23 9,36 0,42 -34,76 -77,76 -43,0 -77,-34 -77,-76 0,-13 3,-26 9,-36z"/>
   <circle class="fil1" cx="726" cy="635" r="49"/>
   <path class="fil2" d="M4833 636l0 0c0,27 -22,49 -49,49l-264 0c-27,0 -49,-22 -49,-49l0 0c0,-27 22,-49 49,-49l264 0c27,0 49,22 49,49z"/>
  </g>
 </g>
</svg>
