<svg width="480" height="80" viewBox="0 0 480 80" fill="none" xmlns="http://www.w3.org/2000/svg">
<path d="M236.259 45.9939C238.857 45.9939 240.963 43.8879 240.963 41.2899C240.963 38.692 238.857 36.5859 236.259 36.5859C233.661 36.5859 231.555 38.692 231.555 41.2899C231.555 43.8879 233.661 45.9939 236.259 45.9939Z" fill="#FF7272"/>
<path d="M327.071 65.8689C329.669 65.8689 331.775 63.7629 331.775 61.1649C331.775 58.567 329.669 56.4609 327.071 56.4609C324.473 56.4609 322.367 58.567 322.367 61.1649C322.367 63.7629 324.473 65.8689 327.071 65.8689Z" fill="#FF7272"/>
<path d="M182.401 14.125H182.306C179.708 14.125 177.602 16.2311 177.602 18.829V61.1484C177.602 63.7463 179.708 65.8524 182.306 65.8524H182.401C184.999 65.8524 187.105 63.7463 187.105 61.1484V18.829C187.105 16.2311 184.999 14.125 182.401 14.125Z" fill="white"/>
<path fill-rule="evenodd" clip-rule="evenodd" d="M258.721 44.8425C256.993 51.8505 252.481 58.1865 245.665 62.1225C232.417 69.8025 215.521 65.1945 207.841 52.0425C200.545 39.4665 204.289 23.5305 216.097 15.4665C221.569 11.4345 228.289 19.0185 221.089 24.1065C214.081 29.4825 211.873 39.2745 216.481 47.1465C221.377 55.6905 232.225 58.5705 240.769 53.6745C245.185 51.1785 248.065 46.9545 249.217 42.4425C249.697 34.9545 261.025 35.2425 258.721 45.0345V44.8425Z" fill="white"/>
<path d="M279.268 14.125H279.173C276.575 14.125 274.469 16.2311 274.469 18.829V61.1484C274.469 63.7463 276.575 65.8524 279.173 65.8524H279.268C281.866 65.8524 283.972 63.7463 283.972 61.1484V18.829C283.972 16.2311 281.866 14.125 279.268 14.125Z" fill="white"/>
<path d="M348.166 22.6555C350.827 22.6555 352.984 20.7459 352.984 18.3903C352.984 16.0346 350.827 14.125 348.166 14.125L305.576 14.125C302.916 14.125 300.759 16.0346 300.759 18.3903C300.759 20.7459 302.916 22.6555 305.576 22.6555L348.166 22.6555Z" fill="white"/>
<path d="M327.166 14.125H327.071C324.473 14.125 322.367 15.8012 322.367 17.869V50.6855C322.367 52.7533 324.473 54.4295 327.071 54.4295H327.166C329.764 54.4295 331.87 52.7533 331.87 50.6855V17.869C331.87 15.8012 329.764 14.125 327.166 14.125Z" fill="white"/>
<path fill-rule="evenodd" clip-rule="evenodd" d="M382.372 28.4268L362.308 63.5628C360.964 65.8668 358.18 66.4428 355.78 65.2908C353.476 64.1388 352.708 61.0668 354.052 58.7628L378.148 16.6188C379.012 15.0828 380.74 14.2188 382.372 14.2188C384.004 14.2188 385.636 15.0828 386.596 16.6188L404.74 48.1068C406.084 50.4108 405.316 53.3868 403.012 54.6348C400.708 55.7868 397.828 55.1148 396.484 52.9068L382.276 28.3308L382.372 28.4268Z" fill="white"/>
<path d="M406.852 65.7752C409.45 65.7752 411.556 63.6691 411.556 61.0712C411.556 58.4732 409.45 56.3672 406.852 56.3672C404.254 56.3672 402.148 58.4732 402.148 61.0712C402.148 63.6691 404.254 65.7752 406.852 65.7752Z" fill="#FF7272"/>
<path d="M433.916 14.125H433.821C431.223 14.125 429.117 16.2311 429.117 18.829V61.1484C429.117 63.7463 431.223 65.8524 433.821 65.8524H433.916C436.514 65.8524 438.62 63.7463 438.62 61.1484V18.829C438.62 16.2311 436.514 14.125 433.916 14.125Z" fill="white"/>
<path d="M118.462 65.8689C121.06 65.8689 123.166 63.7629 123.166 61.1649C123.166 58.567 121.06 56.4609 118.462 56.4609C115.864 56.4609 113.758 58.567 113.758 61.1649C113.758 63.7629 115.864 65.8689 118.462 65.8689Z" fill="#FF7272"/>
<path fill-rule="evenodd" clip-rule="evenodd" d="M142.366 65.5828C148.99 63.9508 154.942 59.7268 158.59 53.3908C165.79 41.0068 161.47 25.0708 149.086 17.9668C137.278 11.1508 122.398 14.7028 114.814 25.6468C114.046 26.6068 113.758 27.6628 113.758 28.6228V28.7188V48.9748C113.758 51.6628 115.87 53.7748 118.558 53.7748C121.15 53.7748 123.358 51.5668 123.358 48.9748V30.6388C123.358 30.3508 123.358 30.0628 123.262 29.7748C128.35 23.5348 137.374 21.7108 144.574 25.8388C152.542 30.4468 155.326 40.6228 150.718 48.5908C148.318 52.7188 144.478 55.4068 140.158 56.4628C133.054 56.8468 133.342 67.5988 142.558 65.3908L142.366 65.5828Z" fill="white"/>
<path fill-rule="evenodd" clip-rule="evenodd" d="M45.121 40.4268C47.521 37.6428 49.057 33.9948 49.057 30.0588C49.057 8.93875 16.033 8.93875 16.033 30.0588C16.033 33.8028 17.377 37.2588 19.585 40.0428C19.105 40.7148 16.513 43.4028 16.033 47.2428C15.073 54.4428 24.001 53.9628 25.153 49.1628C25.441 47.9148 26.017 46.6668 27.073 45.6108C29.857 42.8268 34.273 42.9228 37.153 45.7068L37.249 45.8028L37.345 45.8988C40.129 48.7788 40.129 53.1948 37.441 55.9788C36.481 56.9388 35.617 57.8988 34.465 58.3788C29.089 60.7788 34.177 67.8828 39.745 65.3868C41.281 64.6188 42.625 63.5628 43.969 62.3148C46.657 59.6268 48.289 56.1708 48.673 52.6188C48.673 52.4268 48.673 52.3308 48.673 52.1388C49.057 47.4348 47.713 43.4988 45.313 40.5228L45.121 40.4268ZM26.017 26.6988C26.401 25.9308 26.977 25.2588 27.649 24.6828C28.993 23.5308 30.625 22.8588 32.545 22.8588C34.465 22.8588 36.097 23.5308 37.441 24.6828C38.113 25.2588 38.593 25.8348 39.073 26.6988C39.649 27.7548 39.937 28.9068 39.937 30.1548C39.937 34.1868 36.673 37.4508 32.545 37.4508C28.417 37.4508 25.153 34.1868 25.153 30.1548C25.153 28.9068 25.441 27.6588 26.017 26.6988Z" fill="white"/>
<path d="M21.6024 65.6736C24.2004 65.6736 26.3064 63.5676 26.3064 60.9696C26.3064 58.3717 24.2004 56.2656 21.6024 56.2656C19.0045 56.2656 16.8984 58.3717 16.8984 60.9696C16.8984 63.5676 19.0045 65.6736 21.6024 65.6736Z" fill="#FF7272"/>
<path fill-rule="evenodd" clip-rule="evenodd" d="M93.2148 40.4268C95.6148 37.6428 97.1508 33.9948 97.1508 30.0588C97.1508 8.93875 64.1268 8.93875 64.1268 30.0588C64.1268 33.8028 65.4708 37.2588 67.6788 40.0428C67.1988 40.7148 64.6068 43.4028 64.1268 47.2428C63.1668 54.4428 72.0948 53.9628 73.2468 49.1628C73.5348 47.9148 74.1108 46.6668 75.1668 45.6108C77.9508 42.8268 82.3668 42.9228 85.2468 45.7068L85.3428 45.8028L85.4388 45.8988C88.2228 48.7788 88.2228 53.1948 85.5348 55.9788C84.5748 56.9388 83.7108 57.8988 82.5588 58.3788C77.1828 60.7788 82.2708 67.8828 87.8388 65.3868C89.3748 64.6188 90.7188 63.5628 92.0628 62.3148C94.7508 59.6268 96.3828 56.1708 96.7668 52.6188C96.7668 52.4268 96.7668 52.3308 96.7668 52.1388C97.1508 47.4348 95.8068 43.4988 93.4068 40.5228L93.2148 40.4268ZM74.1108 26.6988C74.4948 25.9308 75.0708 25.2588 75.7428 24.6828C77.0868 23.5308 78.7188 22.8588 80.6388 22.8588C82.5588 22.8588 84.1908 23.5308 85.5348 24.6828C86.2068 25.2588 86.6868 25.8348 87.1668 26.6988C87.7428 27.7548 88.0308 28.9068 88.0308 30.1548C88.0308 34.1868 84.7668 37.4508 80.6388 37.4508C76.5108 37.4508 73.2468 34.1868 73.2468 30.1548C73.2468 28.9068 73.5348 27.6588 74.1108 26.6988Z" fill="white"/>
<path d="M69.6962 65.6736C72.2941 65.6736 74.4002 63.5676 74.4002 60.9696C74.4002 58.3717 72.2941 56.2656 69.6962 56.2656C67.0982 56.2656 64.9922 58.3717 64.9922 60.9696C64.9922 63.5676 67.0982 65.6736 69.6962 65.6736Z" fill="#FF7272"/>
<path fill-rule="evenodd" clip-rule="evenodd" d="M463.971 61.0712C463.971 63.6632 461.859 65.7752 459.267 65.7752H433.923C431.331 65.7752 429.219 63.6632 429.219 61.0712C429.219 58.4792 431.331 56.3672 433.923 56.3672H459.267C461.859 56.3672 463.971 58.4792 463.971 61.0712Z" fill="white"/>
</svg>
