<svg width="69" height="139" viewBox="0 0 69 139" fill="none" xmlns="http://www.w3.org/2000/svg">
<g clip-path="url(#clip0_1120_8606)">
<path d="M31.1523 136.524C27.7018 136.524 24.2839 136.686 20.8984 137.012C17.5781 137.272 14.2253 137.402 10.8398 137.402H10.1562C9.375 137.272 8.39844 137.142 7.22656 137.012C6.05469 136.816 4.91536 136.524 3.80859 136.133C2.76693 135.677 1.85547 135.091 1.07422 134.375C0.358073 133.659 0 132.682 0 131.445C0 131.185 0.0325521 130.827 0.0976562 130.371C0.16276 129.915 0.358073 129.557 0.683594 129.297C0.813802 129.102 1.13932 128.939 1.66016 128.809C2.18099 128.678 2.53906 128.613 2.73438 128.613C4.55729 128.418 6.38021 128.288 8.20312 128.223C10.026 128.158 11.8164 127.962 13.5742 127.637C15.332 127.311 16.9922 126.758 18.5547 125.977C20.1823 125.195 21.6471 124.024 22.9492 122.461C22.8841 119.596 22.9818 116.797 23.2422 114.063C23.5026 111.263 23.6328 108.496 23.6328 105.762C23.6328 104.655 23.5026 103.646 23.2422 102.734C23.0469 101.823 22.9492 100.879 22.9492 99.9023V98.1445C22.9492 97.9492 22.9818 97.6237 23.0469 97.168C23.112 96.7122 23.1771 96.224 23.2422 95.7031C23.3724 95.1172 23.4701 94.5963 23.5352 94.1406C23.6003 93.6849 23.6328 93.3919 23.6328 93.2617V78.6133C23.6328 78.4831 23.6654 78.2552 23.7305 77.9297C23.7956 77.5391 23.8607 77.1484 23.9258 76.7578C24.056 76.3672 24.1536 76.0417 24.2188 75.7812C24.2839 75.4557 24.3164 75.2604 24.3164 75.1953C24.3164 75.0651 24.3164 74.7396 24.3164 74.2187C24.3815 73.6328 24.4141 72.9818 24.4141 72.2656C24.4141 71.5495 24.4141 70.8333 24.4141 70.1172C24.4792 69.401 24.5117 68.8477 24.5117 68.457C24.5117 68.1966 24.4792 67.7409 24.4141 67.0898C24.4141 66.3737 24.4141 65.6575 24.4141 64.9414C24.4141 64.2253 24.3815 63.5742 24.3164 62.9883C24.3164 62.3372 24.3164 61.9141 24.3164 61.7187C24.3164 61.4583 24.2188 60.97 24.0234 60.2539C23.8932 59.5378 23.763 59.0495 23.6328 58.7891V58.0078C23.6328 56.9661 23.8932 55.9896 24.4141 55.0781C24.9349 54.1667 25.1953 53.0924 25.1953 51.8555V50.6836C25.1953 50.0977 25.1302 49.5443 25 49.0234C24.8698 48.4375 24.6419 47.8841 24.3164 47.3633V40.5273C24.3164 38.1836 24.4466 35.9049 24.707 33.6914C25.0326 31.4779 25.1953 29.2643 25.1953 27.0508V25.6836C25.1302 25.6185 25.0326 25.4557 24.9023 25.1953C24.8372 24.8698 24.7396 24.5768 24.6094 24.3164C24.5443 23.9909 24.4792 23.6979 24.4141 23.4375C24.349 23.1771 24.3164 23.0469 24.3164 23.0469C24.3164 22.7213 24.4141 22.2331 24.6094 21.582C24.8698 20.8659 25.0651 20.4427 25.1953 20.3125V19.6289C25.1953 18.457 24.7396 17.3177 23.8281 16.2109C22.9167 15.1042 21.9727 14.388 20.9961 14.0625C20.4102 13.9974 19.3685 13.8346 17.8711 13.5742C16.3737 13.3138 14.8112 13.0534 13.1836 12.793C11.556 12.4674 9.99349 12.1745 8.49609 11.9141C7.0638 11.6536 6.05469 11.4583 5.46875 11.3281C3.90625 11.0026 2.70182 10.3841 1.85547 9.47266C1.07422 8.5612 0.683594 7.25912 0.683594 5.56641C0.683594 4.19922 1.23698 3.15756 2.34375 2.44141C3.51562 1.66016 4.85026 1.10677 6.34766 0.78125C7.84505 0.390625 9.375 0.16276 10.9375 0.0976562C12.5 0.032552 13.7044 0 14.5508 0H15.5273C15.7878 0 16.4062 0.0651041 17.3828 0.195312C18.4245 0.325521 19.4987 0.455729 20.6055 0.585937C21.7773 0.716146 22.8516 0.846354 23.8281 0.976562C24.8047 1.10677 25.4232 1.17188 25.6836 1.17188C26.0091 1.30209 26.6276 1.36719 27.5391 1.36719C28.4505 1.36719 29.4271 1.36719 30.4688 1.36719C31.4453 1.36719 32.3893 1.36719 33.3008 1.36719C34.2122 1.36719 34.8958 1.30209 35.3516 1.17188C36.0677 1.62761 36.849 1.88802 37.6953 1.95313C38.6068 2.01823 39.2904 2.05079 39.7461 2.05079C42.4154 2.05079 44.987 1.79037 47.4609 1.26953C49.9349 0.748698 52.6367 0.488281 55.5664 0.488281H61.0352C61.8164 1.00912 62.6302 1.46485 63.4766 1.85547C64.3229 2.18099 65.1042 2.57162 65.8203 3.02735C66.6016 3.41797 67.2201 3.93881 67.6758 4.58985C68.1966 5.24089 68.457 6.15235 68.457 7.32422C68.457 7.84506 68.3594 8.43099 68.1641 9.08203C67.9688 9.66797 67.6758 10.2539 67.2852 10.8398C66.9596 11.4258 66.5365 11.9141 66.0156 12.3047C65.4948 12.6953 64.9414 12.8906 64.3555 12.8906C62.9232 13.151 61.4909 13.3463 60.0586 13.4766C58.6263 13.6068 57.1289 13.6719 55.5664 13.6719C53.9388 13.6719 52.3438 13.6068 50.7812 13.4766C49.2188 13.3463 47.6237 13.151 45.9961 12.8906C45.8659 12.8906 45.7357 13.0534 45.6055 13.3789C45.5404 13.6393 45.5078 13.8672 45.5078 14.0625C45.5078 14.1927 45.5404 14.4531 45.6055 14.8437C45.6706 15.1693 45.7031 15.5273 45.7031 15.918C45.7682 16.2435 45.8333 16.569 45.8984 16.8945C45.9635 17.22 45.9961 17.3828 45.9961 17.3828V18.9453C45.9961 19.6615 45.8659 20.3125 45.6055 20.8984C45.4102 21.4844 45.1823 22.0703 44.9219 22.6562C44.7266 23.2422 44.4987 23.8281 44.2383 24.4141C44.043 24.9349 43.9453 25.5208 43.9453 26.1719V27.5391C44.0755 27.7344 44.2057 28.125 44.3359 28.7109C44.5312 29.2969 44.694 29.6549 44.8242 29.7851V33.6914V35.1562C44.8893 35.4818 44.987 35.7747 45.1172 36.0351C45.3776 36.6862 45.5078 37.0768 45.5078 37.207C45.638 38.9648 45.7357 40.625 45.8008 42.1875C45.931 43.75 45.9961 45.4753 45.9961 47.3633C45.9961 49.4466 45.638 51.5299 44.9219 53.6133C44.2708 55.6315 43.9453 57.7474 43.9453 59.9609V60.1562C44.0104 60.2865 44.1081 60.5469 44.2383 60.9375C44.4336 61.263 44.6289 61.6536 44.8242 62.1094C45.0195 62.5651 45.1823 63.0208 45.3125 63.4766C45.4427 63.8672 45.5078 64.1276 45.5078 64.2578V67.7734C45.5078 70.2474 45.2474 72.6888 44.7266 75.0977C44.2057 77.4414 43.9453 79.8503 43.9453 82.3242C43.9453 85.5143 44.0755 88.6719 44.3359 91.7969C44.6615 94.8568 44.8242 97.9492 44.8242 101.074V109.473C44.694 109.798 44.5312 110.417 44.3359 111.328C44.2057 112.175 44.0755 112.695 43.9453 112.891C43.9453 112.956 43.9128 113.151 43.8477 113.477C43.7826 113.737 43.6849 114.03 43.5547 114.356C43.4896 114.616 43.4245 114.909 43.3594 115.234C43.2943 115.495 43.2617 115.658 43.2617 115.723C43.2617 115.853 43.2943 116.211 43.3594 116.797C43.4245 117.318 43.4896 117.936 43.5547 118.652C43.6198 119.303 43.6849 119.955 43.75 120.606C43.8151 121.192 43.8802 121.615 43.9453 121.875C44.1406 122.787 44.4661 123.503 44.9219 124.024C45.3776 124.544 45.8984 124.968 46.4844 125.293C47.0703 125.553 47.7214 125.749 48.4375 125.879C49.1536 126.009 49.9023 126.172 50.6836 126.367C50.7487 126.497 50.9766 126.628 51.3672 126.758C51.8229 126.888 52.2786 127.051 52.7344 127.246C53.1901 127.376 53.6133 127.507 54.0039 127.637C54.4596 127.767 54.7526 127.865 54.8828 127.93C55.2083 127.995 55.7943 128.06 56.6406 128.125C57.5521 128.19 58.4961 128.255 59.4727 128.32C60.5143 128.386 61.4909 128.451 62.4023 128.516C63.3138 128.581 63.9648 128.613 64.3555 128.613C64.9414 129.004 65.2995 129.395 65.4297 129.785C65.625 130.176 65.7227 130.664 65.7227 131.25V132.129C65.7227 133.626 65.4297 134.733 64.8438 135.449C64.3229 136.165 63.5091 137.044 62.4023 138.086C62.207 138.086 61.9466 138.184 61.6211 138.379C61.2956 138.639 61.1003 138.77 61.0352 138.77H60.6445H60.1562C55.2734 138.444 50.4232 137.988 45.6055 137.402C40.8529 136.816 36.0352 136.524 31.1523 136.524Z" fill="white"/>
</g>
<defs>
<clipPath id="clip0_1120_8606">
<rect width="69" height="139" fill="white"/>
</clipPath>
</defs>
</svg>
