<svg width="22" height="45" viewBox="0 0 22 45" fill="none" xmlns="http://www.w3.org/2000/svg">
<g clip-path="url(#clip0_1152_10364)">
<path d="M9.96875 43.6875C8.86458 43.6875 7.77083 43.7396 6.6875 43.8438C5.625 43.9271 4.55208 43.9688 3.46875 43.9688H3.25C3 43.9271 2.6875 43.8854 2.3125 43.8438C1.9375 43.7812 1.57292 43.6875 1.21875 43.5625C0.885417 43.4167 0.59375 43.2292 0.34375 43C0.114583 42.7708 0 42.4583 0 42.0625C0 41.9792 0.0104167 41.8646 0.03125 41.7188C0.0520833 41.5729 0.114583 41.4583 0.21875 41.375C0.260417 41.3125 0.364583 41.2604 0.53125 41.2188C0.697917 41.1771 0.8125 41.1562 0.875 41.1562C1.45833 41.0938 2.04167 41.0521 2.625 41.0312C3.20833 41.0104 3.78125 40.9479 4.34375 40.8438C4.90625 40.7396 5.4375 40.5625 5.9375 40.3125C6.45833 40.0625 6.92708 39.6875 7.34375 39.1875C7.32292 38.2708 7.35417 37.375 7.4375 36.5C7.52083 35.6042 7.5625 34.7188 7.5625 33.8438C7.5625 33.4896 7.52083 33.1667 7.4375 32.875C7.375 32.5833 7.34375 32.2812 7.34375 31.9688V31.4062C7.34375 31.3438 7.35417 31.2396 7.375 31.0938C7.39583 30.9479 7.41667 30.7917 7.4375 30.625C7.47917 30.4375 7.51042 30.2708 7.53125 30.125C7.55208 29.9792 7.5625 29.8854 7.5625 29.8438V25.1562C7.5625 25.1146 7.57292 25.0417 7.59375 24.9375C7.61458 24.8125 7.63542 24.6875 7.65625 24.5625C7.69792 24.4375 7.72917 24.3333 7.75 24.25C7.77083 24.1458 7.78125 24.0833 7.78125 24.0625C7.78125 24.0208 7.78125 23.9167 7.78125 23.75C7.80208 23.5625 7.8125 23.3542 7.8125 23.125C7.8125 22.8958 7.8125 22.6667 7.8125 22.4375C7.83333 22.2083 7.84375 22.0312 7.84375 21.9062C7.84375 21.8229 7.83333 21.6771 7.8125 21.4688C7.8125 21.2396 7.8125 21.0104 7.8125 20.7812C7.8125 20.5521 7.80208 20.3438 7.78125 20.1562C7.78125 19.9479 7.78125 19.8125 7.78125 19.75C7.78125 19.6667 7.75 19.5104 7.6875 19.2812C7.64583 19.0521 7.60417 18.8958 7.5625 18.8125V18.5625C7.5625 18.2292 7.64583 17.9167 7.8125 17.625C7.97917 17.3333 8.0625 16.9896 8.0625 16.5938V16.2188C8.0625 16.0312 8.04167 15.8542 8 15.6875C7.95833 15.5 7.88542 15.3229 7.78125 15.1562V12.9688C7.78125 12.2188 7.82292 11.4896 7.90625 10.7812C8.01042 10.0729 8.0625 9.36458 8.0625 8.65625V8.21875C8.04167 8.19792 8.01042 8.14583 7.96875 8.0625C7.94792 7.95833 7.91667 7.86458 7.875 7.78125C7.85417 7.67708 7.83333 7.58333 7.8125 7.5C7.79167 7.41667 7.78125 7.375 7.78125 7.375C7.78125 7.27083 7.8125 7.11458 7.875 6.90625C7.95833 6.67708 8.02083 6.54167 8.0625 6.5V6.28125C8.0625 5.90625 7.91667 5.54167 7.625 5.1875C7.33333 4.83333 7.03125 4.60417 6.71875 4.5C6.53125 4.47917 6.19792 4.42708 5.71875 4.34375C5.23958 4.26042 4.73958 4.17708 4.21875 4.09375C3.69792 3.98958 3.19792 3.89583 2.71875 3.8125C2.26042 3.72917 1.9375 3.66667 1.75 3.625C1.25 3.52083 0.864583 3.32292 0.59375 3.03125C0.34375 2.73958 0.21875 2.32292 0.21875 1.78125C0.21875 1.34375 0.395833 1.01042 0.75 0.78125C1.125 0.53125 1.55208 0.354167 2.03125 0.25C2.51042 0.125 3 0.0520833 3.5 0.03125C4 0.0104167 4.38542 0 4.65625 0H4.96875C5.05208 0 5.25 0.0208333 5.5625 0.0625C5.89583 0.104167 6.23958 0.145833 6.59375 0.1875C6.96875 0.229167 7.3125 0.270833 7.625 0.3125C7.9375 0.354167 8.13542 0.375 8.21875 0.375C8.32292 0.416667 8.52083 0.4375 8.8125 0.4375C9.10417 0.4375 9.41667 0.4375 9.75 0.4375C10.0625 0.4375 10.3646 0.4375 10.6562 0.4375C10.9479 0.4375 11.1667 0.416667 11.3125 0.375C11.5417 0.520833 11.7917 0.604167 12.0625 0.625C12.3542 0.645833 12.5729 0.65625 12.7188 0.65625C13.5729 0.65625 14.3958 0.572917 15.1875 0.40625C15.9792 0.239583 16.8438 0.15625 17.7812 0.15625H19.5312C19.7812 0.322917 20.0417 0.46875 20.3125 0.59375C20.5833 0.697917 20.8333 0.822917 21.0625 0.96875C21.3125 1.09375 21.5104 1.26042 21.6562 1.46875C21.8229 1.67708 21.9062 1.96875 21.9062 2.34375C21.9062 2.51042 21.875 2.69792 21.8125 2.90625C21.75 3.09375 21.6562 3.28125 21.5312 3.46875C21.4271 3.65625 21.2917 3.8125 21.125 3.9375C20.9583 4.0625 20.7812 4.125 20.5938 4.125C20.1354 4.20833 19.6771 4.27083 19.2188 4.3125C18.7604 4.35417 18.2812 4.375 17.7812 4.375C17.2604 4.375 16.75 4.35417 16.25 4.3125C15.75 4.27083 15.2396 4.20833 14.7188 4.125C14.6771 4.125 14.6354 4.17708 14.5938 4.28125C14.5729 4.36458 14.5625 4.4375 14.5625 4.5C14.5625 4.54167 14.5729 4.625 14.5938 4.75C14.6146 4.85417 14.625 4.96875 14.625 5.09375C14.6458 5.19792 14.6667 5.30208 14.6875 5.40625C14.7083 5.51042 14.7188 5.5625 14.7188 5.5625V6.0625C14.7188 6.29167 14.6771 6.5 14.5938 6.6875C14.5312 6.875 14.4583 7.0625 14.375 7.25C14.3125 7.4375 14.2396 7.625 14.1562 7.8125C14.0938 7.97917 14.0625 8.16667 14.0625 8.375V8.8125C14.1042 8.875 14.1458 9 14.1875 9.1875C14.25 9.375 14.3021 9.48958 14.3438 9.53125V10.7812V11.25C14.3646 11.3542 14.3958 11.4479 14.4375 11.5312C14.5208 11.7396 14.5625 11.8646 14.5625 11.9062C14.6042 12.4688 14.6354 13 14.6562 13.5C14.6979 14 14.7188 14.5521 14.7188 15.1562C14.7188 15.8229 14.6042 16.4896 14.375 17.1562C14.1667 17.8021 14.0625 18.4792 14.0625 19.1875V19.25C14.0833 19.2917 14.1146 19.375 14.1562 19.5C14.2188 19.6042 14.2812 19.7292 14.3438 19.875C14.4062 20.0208 14.4583 20.1667 14.5 20.3125C14.5417 20.4375 14.5625 20.5208 14.5625 20.5625V21.6875C14.5625 22.4792 14.4792 23.2604 14.3125 24.0312C14.1458 24.7812 14.0625 25.5521 14.0625 26.3438C14.0625 27.3646 14.1042 28.375 14.1875 29.375C14.2917 30.3542 14.3438 31.3438 14.3438 32.3438V35.0312C14.3021 35.1354 14.25 35.3333 14.1875 35.625C14.1458 35.8958 14.1042 36.0625 14.0625 36.125C14.0625 36.1458 14.0521 36.2083 14.0312 36.3125C14.0104 36.3958 13.9792 36.4896 13.9375 36.5938C13.9167 36.6771 13.8958 36.7708 13.875 36.875C13.8542 36.9583 13.8438 37.0104 13.8438 37.0312C13.8438 37.0729 13.8542 37.1875 13.875 37.375C13.8958 37.5417 13.9167 37.7396 13.9375 37.9688C13.9583 38.1771 13.9792 38.3854 14 38.5938C14.0208 38.7812 14.0417 38.9167 14.0625 39C14.125 39.2917 14.2292 39.5208 14.375 39.6875C14.5208 39.8542 14.6875 39.9896 14.875 40.0938C15.0625 40.1771 15.2708 40.2396 15.5 40.2812C15.7292 40.3229 15.9688 40.375 16.2188 40.4375C16.2396 40.4792 16.3125 40.5208 16.4375 40.5625C16.5833 40.6042 16.7292 40.6562 16.875 40.7188C17.0208 40.7604 17.1562 40.8021 17.2812 40.8438C17.4271 40.8854 17.5208 40.9167 17.5625 40.9375C17.6667 40.9583 17.8542 40.9792 18.125 41C18.4167 41.0208 18.7188 41.0417 19.0312 41.0625C19.3646 41.0833 19.6771 41.1042 19.9688 41.125C20.2604 41.1458 20.4688 41.1562 20.5938 41.1562C20.7812 41.2812 20.8958 41.4062 20.9375 41.5312C21 41.6562 21.0312 41.8125 21.0312 42V42.2812C21.0312 42.7604 20.9375 43.1146 20.75 43.3438C20.5833 43.5729 20.3229 43.8542 19.9688 44.1875C19.9062 44.1875 19.8229 44.2188 19.7188 44.2812C19.6146 44.3646 19.5521 44.4062 19.5312 44.4062H19.4062H19.25C17.6875 44.3021 16.1354 44.1562 14.5938 43.9688C13.0729 43.7812 11.5312 43.6875 9.96875 43.6875Z" fill="white"/>
</g>
<defs>
<clipPath id="clip0_1152_10364">
<rect width="22" height="45" fill="white"/>
</clipPath>
</defs>
</svg>
