<svg width="75" height="45" viewBox="0 0 75 45" fill="none" xmlns="http://www.w3.org/2000/svg">
<g clip-path="url(#clip0_1152_10361)">
<path d="M9.96875 43.6875C8.86458 43.6875 7.77083 43.7396 6.6875 43.8438C5.625 43.9271 4.55208 43.9688 3.46875 43.9688H3.25C3 43.9271 2.6875 43.8854 2.3125 43.8438C1.9375 43.7812 1.57292 43.6875 1.21875 43.5625C0.885417 43.4167 0.59375 43.2292 0.34375 43C0.114583 42.7708 0 42.4583 0 42.0625C0 41.9792 0.0104167 41.8646 0.03125 41.7188C0.0520833 41.5729 0.114583 41.4583 0.21875 41.375C0.260417 41.3125 0.364583 41.2604 0.53125 41.2188C0.697917 41.1771 0.8125 41.1562 0.875 41.1562C1.45833 41.0938 2.04167 41.0521 2.625 41.0312C3.20833 41.0104 3.78125 40.9479 4.34375 40.8438C4.90625 40.7396 5.4375 40.5625 5.9375 40.3125C6.45833 40.0625 6.92708 39.6875 7.34375 39.1875C7.32292 38.2708 7.35417 37.375 7.4375 36.5C7.52083 35.6042 7.5625 34.7188 7.5625 33.8438C7.5625 33.4896 7.52083 33.1667 7.4375 32.875C7.375 32.5833 7.34375 32.2812 7.34375 31.9688V31.4062C7.34375 31.3438 7.35417 31.2396 7.375 31.0938C7.39583 30.9479 7.41667 30.7917 7.4375 30.625C7.47917 30.4375 7.51042 30.2708 7.53125 30.125C7.55208 29.9792 7.5625 29.8854 7.5625 29.8438V25.1562C7.5625 25.1146 7.57292 25.0417 7.59375 24.9375C7.61458 24.8125 7.63542 24.6875 7.65625 24.5625C7.69792 24.4375 7.72917 24.3333 7.75 24.25C7.77083 24.1458 7.78125 24.0833 7.78125 24.0625C7.78125 24.0208 7.78125 23.9167 7.78125 23.75C7.80208 23.5625 7.8125 23.3542 7.8125 23.125C7.8125 22.8958 7.8125 22.6667 7.8125 22.4375C7.83333 22.2083 7.84375 22.0312 7.84375 21.9062C7.84375 21.8229 7.83333 21.6771 7.8125 21.4688C7.8125 21.2396 7.8125 21.0104 7.8125 20.7812C7.8125 20.5521 7.80208 20.3438 7.78125 20.1562C7.78125 19.9479 7.78125 19.8125 7.78125 19.75C7.78125 19.6667 7.75 19.5104 7.6875 19.2812C7.64583 19.0521 7.60417 18.8958 7.5625 18.8125V18.5625C7.5625 18.2292 7.64583 17.9167 7.8125 17.625C7.97917 17.3333 8.0625 16.9896 8.0625 16.5938V16.2188C8.0625 16.0312 8.04167 15.8542 8 15.6875C7.95833 15.5 7.88542 15.3229 7.78125 15.1562V12.9688C7.78125 12.2188 7.82292 11.4896 7.90625 10.7812C8.01042 10.0729 8.0625 9.36458 8.0625 8.65625V8.21875C8.04167 8.19792 8.01042 8.14583 7.96875 8.0625C7.94792 7.95833 7.91667 7.86458 7.875 7.78125C7.85417 7.67708 7.83333 7.58333 7.8125 7.5C7.79167 7.41667 7.78125 7.375 7.78125 7.375C7.78125 7.27083 7.8125 7.11458 7.875 6.90625C7.95833 6.67708 8.02083 6.54167 8.0625 6.5V6.28125C8.0625 5.90625 7.91667 5.54167 7.625 5.1875C7.33333 4.83333 7.03125 4.60417 6.71875 4.5C6.53125 4.47917 6.19792 4.42708 5.71875 4.34375C5.23958 4.26042 4.73958 4.17708 4.21875 4.09375C3.69792 3.98958 3.19792 3.89583 2.71875 3.8125C2.26042 3.72917 1.9375 3.66667 1.75 3.625C1.25 3.52083 0.864583 3.32292 0.59375 3.03125C0.34375 2.73958 0.21875 2.32292 0.21875 1.78125C0.21875 1.34375 0.395833 1.01042 0.75 0.78125C1.125 0.53125 1.55208 0.354167 2.03125 0.25C2.51042 0.125 3 0.0520833 3.5 0.03125C4 0.0104167 4.38542 0 4.65625 0H4.96875C5.05208 0 5.25 0.0208333 5.5625 0.0625C5.89583 0.104167 6.23958 0.145833 6.59375 0.1875C6.96875 0.229167 7.3125 0.270833 7.625 0.3125C7.9375 0.354167 8.13542 0.375 8.21875 0.375C8.32292 0.416667 8.52083 0.4375 8.8125 0.4375C9.10417 0.4375 9.41667 0.4375 9.75 0.4375C10.0625 0.4375 10.3646 0.4375 10.6562 0.4375C10.9479 0.4375 11.1667 0.416667 11.3125 0.375C11.5417 0.520833 11.7917 0.604167 12.0625 0.625C12.3542 0.645833 12.5729 0.65625 12.7188 0.65625C13.5729 0.65625 14.3958 0.572917 15.1875 0.40625C15.9792 0.239583 16.8438 0.15625 17.7812 0.15625H19.5312C19.7812 0.322917 20.0417 0.46875 20.3125 0.59375C20.5833 0.697917 20.8333 0.822917 21.0625 0.96875C21.3125 1.09375 21.5104 1.26042 21.6562 1.46875C21.8229 1.67708 21.9062 1.96875 21.9062 2.34375C21.9062 2.51042 21.875 2.69792 21.8125 2.90625C21.75 3.09375 21.6562 3.28125 21.5312 3.46875C21.4271 3.65625 21.2917 3.8125 21.125 3.9375C20.9583 4.0625 20.7812 4.125 20.5938 4.125C20.1354 4.20833 19.6771 4.27083 19.2188 4.3125C18.7604 4.35417 18.2812 4.375 17.7812 4.375C17.2604 4.375 16.75 4.35417 16.25 4.3125C15.75 4.27083 15.2396 4.20833 14.7188 4.125C14.6771 4.125 14.6354 4.17708 14.5938 4.28125C14.5729 4.36458 14.5625 4.4375 14.5625 4.5C14.5625 4.54167 14.5729 4.625 14.5938 4.75C14.6146 4.85417 14.625 4.96875 14.625 5.09375C14.6458 5.19792 14.6667 5.30208 14.6875 5.40625C14.7083 5.51042 14.7188 5.5625 14.7188 5.5625V6.0625C14.7188 6.29167 14.6771 6.5 14.5938 6.6875C14.5312 6.875 14.4583 7.0625 14.375 7.25C14.3125 7.4375 14.2396 7.625 14.1562 7.8125C14.0938 7.97917 14.0625 8.16667 14.0625 8.375V8.8125C14.1042 8.875 14.1458 9 14.1875 9.1875C14.25 9.375 14.3021 9.48958 14.3438 9.53125V10.7812V11.25C14.3646 11.3542 14.3958 11.4479 14.4375 11.5312C14.5208 11.7396 14.5625 11.8646 14.5625 11.9062C14.6042 12.4688 14.6354 13 14.6562 13.5C14.6979 14 14.7188 14.5521 14.7188 15.1562C14.7188 15.8229 14.6042 16.4896 14.375 17.1562C14.1667 17.8021 14.0625 18.4792 14.0625 19.1875V19.25C14.0833 19.2917 14.1146 19.375 14.1562 19.5C14.2188 19.6042 14.2812 19.7292 14.3438 19.875C14.4062 20.0208 14.4583 20.1667 14.5 20.3125C14.5417 20.4375 14.5625 20.5208 14.5625 20.5625V21.6875C14.5625 22.4792 14.4792 23.2604 14.3125 24.0312C14.1458 24.7812 14.0625 25.5521 14.0625 26.3438C14.0625 27.3646 14.1042 28.375 14.1875 29.375C14.2917 30.3542 14.3438 31.3438 14.3438 32.3438V35.0312C14.3021 35.1354 14.25 35.3333 14.1875 35.625C14.1458 35.8958 14.1042 36.0625 14.0625 36.125C14.0625 36.1458 14.0521 36.2083 14.0312 36.3125C14.0104 36.3958 13.9792 36.4896 13.9375 36.5938C13.9167 36.6771 13.8958 36.7708 13.875 36.875C13.8542 36.9583 13.8438 37.0104 13.8438 37.0312C13.8438 37.0729 13.8542 37.1875 13.875 37.375C13.8958 37.5417 13.9167 37.7396 13.9375 37.9688C13.9583 38.1771 13.9792 38.3854 14 38.5938C14.0208 38.7812 14.0417 38.9167 14.0625 39C14.125 39.2917 14.2292 39.5208 14.375 39.6875C14.5208 39.8542 14.6875 39.9896 14.875 40.0938C15.0625 40.1771 15.2708 40.2396 15.5 40.2812C15.7292 40.3229 15.9688 40.375 16.2188 40.4375C16.2396 40.4792 16.3125 40.5208 16.4375 40.5625C16.5833 40.6042 16.7292 40.6562 16.875 40.7188C17.0208 40.7604 17.1562 40.8021 17.2812 40.8438C17.4271 40.8854 17.5208 40.9167 17.5625 40.9375C17.6667 40.9583 17.8542 40.9792 18.125 41C18.4167 41.0208 18.7188 41.0417 19.0312 41.0625C19.3646 41.0833 19.6771 41.1042 19.9688 41.125C20.2604 41.1458 20.4688 41.1562 20.5938 41.1562C20.7812 41.2812 20.8958 41.4062 20.9375 41.5312C21 41.6562 21.0312 41.8125 21.0312 42V42.2812C21.0312 42.7604 20.9375 43.1146 20.75 43.3438C20.5833 43.5729 20.3229 43.8542 19.9688 44.1875C19.9062 44.1875 19.8229 44.2188 19.7188 44.2812C19.6146 44.3646 19.5521 44.4062 19.5312 44.4062H19.4062H19.25C17.6875 44.3021 16.1354 44.1562 14.5938 43.9688C13.0729 43.7812 11.5312 43.6875 9.96875 43.6875ZM36.3438 43.6875C35.2396 43.6875 34.1458 43.7396 33.0625 43.8438C32 43.9271 30.9271 43.9688 29.8438 43.9688H29.625C29.375 43.9271 29.0625 43.8854 28.6875 43.8438C28.3125 43.7812 27.9479 43.6875 27.5938 43.5625C27.2604 43.4167 26.9688 43.2292 26.7188 43C26.4896 42.7708 26.375 42.4583 26.375 42.0625C26.375 41.9792 26.3854 41.8646 26.4062 41.7188C26.4271 41.5729 26.4896 41.4583 26.5938 41.375C26.6354 41.3125 26.7396 41.2604 26.9062 41.2188C27.0729 41.1771 27.1875 41.1562 27.25 41.1562C27.8333 41.0938 28.4167 41.0521 29 41.0312C29.5833 41.0104 30.1562 40.9479 30.7188 40.8438C31.2812 40.7396 31.8125 40.5625 32.3125 40.3125C32.8333 40.0625 33.3021 39.6875 33.7188 39.1875C33.6979 38.2708 33.7292 37.375 33.8125 36.5C33.8958 35.6042 33.9375 34.7188 33.9375 33.8438C33.9375 33.4896 33.8958 33.1667 33.8125 32.875C33.75 32.5833 33.7188 32.2812 33.7188 31.9688V31.4062C33.7188 31.3438 33.7292 31.2396 33.75 31.0938C33.7708 30.9479 33.7917 30.7917 33.8125 30.625C33.8542 30.4375 33.8854 30.2708 33.9062 30.125C33.9271 29.9792 33.9375 29.8854 33.9375 29.8438V25.1562C33.9375 25.1146 33.9479 25.0417 33.9688 24.9375C33.9896 24.8125 34.0104 24.6875 34.0312 24.5625C34.0729 24.4375 34.1042 24.3333 34.125 24.25C34.1458 24.1458 34.1562 24.0833 34.1562 24.0625C34.1562 24.0208 34.1562 23.9167 34.1562 23.75C34.1771 23.5625 34.1875 23.3542 34.1875 23.125C34.1875 22.8958 34.1875 22.6667 34.1875 22.4375C34.2083 22.2083 34.2188 22.0312 34.2188 21.9062C34.2188 21.8229 34.2083 21.6771 34.1875 21.4688C34.1875 21.2396 34.1875 21.0104 34.1875 20.7812C34.1875 20.5521 34.1771 20.3438 34.1562 20.1562C34.1562 19.9479 34.1562 19.8125 34.1562 19.75C34.1562 19.6667 34.125 19.5104 34.0625 19.2812C34.0208 19.0521 33.9792 18.8958 33.9375 18.8125V18.5625C33.9375 18.2292 34.0208 17.9167 34.1875 17.625C34.3542 17.3333 34.4375 16.9896 34.4375 16.5938V16.2188C34.4375 16.0312 34.4167 15.8542 34.375 15.6875C34.3333 15.5 34.2604 15.3229 34.1562 15.1562V12.9688C34.1562 12.2188 34.1979 11.4896 34.2812 10.7812C34.3854 10.0729 34.4375 9.36458 34.4375 8.65625V8.21875C34.4167 8.19792 34.3854 8.14583 34.3438 8.0625C34.3229 7.95833 34.2917 7.86458 34.25 7.78125C34.2292 7.67708 34.2083 7.58333 34.1875 7.5C34.1667 7.41667 34.1562 7.375 34.1562 7.375C34.1562 7.27083 34.1875 7.11458 34.25 6.90625C34.3333 6.67708 34.3958 6.54167 34.4375 6.5V6.28125C34.4375 5.90625 34.2917 5.54167 34 5.1875C33.7083 4.83333 33.4062 4.60417 33.0938 4.5C32.9062 4.47917 32.5729 4.42708 32.0938 4.34375C31.6146 4.26042 31.1146 4.17708 30.5938 4.09375C30.0729 3.98958 29.5729 3.89583 29.0938 3.8125C28.6354 3.72917 28.3125 3.66667 28.125 3.625C27.625 3.52083 27.2396 3.32292 26.9688 3.03125C26.7188 2.73958 26.5938 2.32292 26.5938 1.78125C26.5938 1.34375 26.7708 1.01042 27.125 0.78125C27.5 0.53125 27.9271 0.354167 28.4062 0.25C28.8854 0.125 29.375 0.0520833 29.875 0.03125C30.375 0.0104167 30.7604 0 31.0312 0H31.3438C31.4271 0 31.625 0.0208333 31.9375 0.0625C32.2708 0.104167 32.6146 0.145833 32.9688 0.1875C33.3438 0.229167 33.6875 0.270833 34 0.3125C34.3125 0.354167 34.5104 0.375 34.5938 0.375C34.6979 0.416667 34.8958 0.4375 35.1875 0.4375C35.4792 0.4375 35.7917 0.4375 36.125 0.4375C36.4375 0.4375 36.7396 0.4375 37.0312 0.4375C37.3229 0.4375 37.5417 0.416667 37.6875 0.375C37.9167 0.520833 38.1667 0.604167 38.4375 0.625C38.7292 0.645833 38.9479 0.65625 39.0938 0.65625C39.9479 0.65625 40.7708 0.572917 41.5625 0.40625C42.3542 0.239583 43.2188 0.15625 44.1562 0.15625H45.9062C46.1562 0.322917 46.4167 0.46875 46.6875 0.59375C46.9583 0.697917 47.2083 0.822917 47.4375 0.96875C47.6875 1.09375 47.8854 1.26042 48.0312 1.46875C48.1979 1.67708 48.2812 1.96875 48.2812 2.34375C48.2812 2.51042 48.25 2.69792 48.1875 2.90625C48.125 3.09375 48.0312 3.28125 47.9062 3.46875C47.8021 3.65625 47.6667 3.8125 47.5 3.9375C47.3333 4.0625 47.1562 4.125 46.9688 4.125C46.5104 4.20833 46.0521 4.27083 45.5938 4.3125C45.1354 4.35417 44.6562 4.375 44.1562 4.375C43.6354 4.375 43.125 4.35417 42.625 4.3125C42.125 4.27083 41.6146 4.20833 41.0938 4.125C41.0521 4.125 41.0104 4.17708 40.9688 4.28125C40.9479 4.36458 40.9375 4.4375 40.9375 4.5C40.9375 4.54167 40.9479 4.625 40.9688 4.75C40.9896 4.85417 41 4.96875 41 5.09375C41.0208 5.19792 41.0417 5.30208 41.0625 5.40625C41.0833 5.51042 41.0938 5.5625 41.0938 5.5625V6.0625C41.0938 6.29167 41.0521 6.5 40.9688 6.6875C40.9062 6.875 40.8333 7.0625 40.75 7.25C40.6875 7.4375 40.6146 7.625 40.5312 7.8125C40.4688 7.97917 40.4375 8.16667 40.4375 8.375V8.8125C40.4792 8.875 40.5208 9 40.5625 9.1875C40.625 9.375 40.6771 9.48958 40.7188 9.53125V10.7812V11.25C40.7396 11.3542 40.7708 11.4479 40.8125 11.5312C40.8958 11.7396 40.9375 11.8646 40.9375 11.9062C40.9792 12.4688 41.0104 13 41.0312 13.5C41.0729 14 41.0938 14.5521 41.0938 15.1562C41.0938 15.8229 40.9792 16.4896 40.75 17.1562C40.5417 17.8021 40.4375 18.4792 40.4375 19.1875V19.25C40.4583 19.2917 40.4896 19.375 40.5312 19.5C40.5938 19.6042 40.6562 19.7292 40.7188 19.875C40.7812 20.0208 40.8333 20.1667 40.875 20.3125C40.9167 20.4375 40.9375 20.5208 40.9375 20.5625V21.6875C40.9375 22.4792 40.8542 23.2604 40.6875 24.0312C40.5208 24.7812 40.4375 25.5521 40.4375 26.3438C40.4375 27.3646 40.4792 28.375 40.5625 29.375C40.6667 30.3542 40.7188 31.3438 40.7188 32.3438V35.0312C40.6771 35.1354 40.625 35.3333 40.5625 35.625C40.5208 35.8958 40.4792 36.0625 40.4375 36.125C40.4375 36.1458 40.4271 36.2083 40.4062 36.3125C40.3854 36.3958 40.3542 36.4896 40.3125 36.5938C40.2917 36.6771 40.2708 36.7708 40.25 36.875C40.2292 36.9583 40.2188 37.0104 40.2188 37.0312C40.2188 37.0729 40.2292 37.1875 40.25 37.375C40.2708 37.5417 40.2917 37.7396 40.3125 37.9688C40.3333 38.1771 40.3542 38.3854 40.375 38.5938C40.3958 38.7812 40.4167 38.9167 40.4375 39C40.5 39.2917 40.6042 39.5208 40.75 39.6875C40.8958 39.8542 41.0625 39.9896 41.25 40.0938C41.4375 40.1771 41.6458 40.2396 41.875 40.2812C42.1042 40.3229 42.3438 40.375 42.5938 40.4375C42.6146 40.4792 42.6875 40.5208 42.8125 40.5625C42.9583 40.6042 43.1042 40.6562 43.25 40.7188C43.3958 40.7604 43.5312 40.8021 43.6562 40.8438C43.8021 40.8854 43.8958 40.9167 43.9375 40.9375C44.0417 40.9583 44.2292 40.9792 44.5 41C44.7917 41.0208 45.0938 41.0417 45.4062 41.0625C45.7396 41.0833 46.0521 41.1042 46.3438 41.125C46.6354 41.1458 46.8438 41.1562 46.9688 41.1562C47.1562 41.2812 47.2708 41.4062 47.3125 41.5312C47.375 41.6562 47.4062 41.8125 47.4062 42V42.2812C47.4062 42.7604 47.3125 43.1146 47.125 43.3438C46.9583 43.5729 46.6979 43.8542 46.3438 44.1875C46.2812 44.1875 46.1979 44.2188 46.0938 44.2812C45.9896 44.3646 45.9271 44.4062 45.9062 44.4062H45.7812H45.625C44.0625 44.3021 42.5104 44.1562 40.9688 43.9688C39.4479 43.7812 37.9062 43.6875 36.3438 43.6875ZM62.7188 43.6875C61.6146 43.6875 60.5208 43.7396 59.4375 43.8438C58.375 43.9271 57.3021 43.9688 56.2188 43.9688H56C55.75 43.9271 55.4375 43.8854 55.0625 43.8438C54.6875 43.7812 54.3229 43.6875 53.9688 43.5625C53.6354 43.4167 53.3438 43.2292 53.0938 43C52.8646 42.7708 52.75 42.4583 52.75 42.0625C52.75 41.9792 52.7604 41.8646 52.7812 41.7188C52.8021 41.5729 52.8646 41.4583 52.9688 41.375C53.0104 41.3125 53.1146 41.2604 53.2812 41.2188C53.4479 41.1771 53.5625 41.1562 53.625 41.1562C54.2083 41.0938 54.7917 41.0521 55.375 41.0312C55.9583 41.0104 56.5312 40.9479 57.0938 40.8438C57.6562 40.7396 58.1875 40.5625 58.6875 40.3125C59.2083 40.0625 59.6771 39.6875 60.0938 39.1875C60.0729 38.2708 60.1042 37.375 60.1875 36.5C60.2708 35.6042 60.3125 34.7188 60.3125 33.8438C60.3125 33.4896 60.2708 33.1667 60.1875 32.875C60.125 32.5833 60.0938 32.2812 60.0938 31.9688V31.4062C60.0938 31.3438 60.1042 31.2396 60.125 31.0938C60.1458 30.9479 60.1667 30.7917 60.1875 30.625C60.2292 30.4375 60.2604 30.2708 60.2812 30.125C60.3021 29.9792 60.3125 29.8854 60.3125 29.8438V25.1562C60.3125 25.1146 60.3229 25.0417 60.3438 24.9375C60.3646 24.8125 60.3854 24.6875 60.4062 24.5625C60.4479 24.4375 60.4792 24.3333 60.5 24.25C60.5208 24.1458 60.5312 24.0833 60.5312 24.0625C60.5312 24.0208 60.5312 23.9167 60.5312 23.75C60.5521 23.5625 60.5625 23.3542 60.5625 23.125C60.5625 22.8958 60.5625 22.6667 60.5625 22.4375C60.5833 22.2083 60.5938 22.0312 60.5938 21.9062C60.5938 21.8229 60.5833 21.6771 60.5625 21.4688C60.5625 21.2396 60.5625 21.0104 60.5625 20.7812C60.5625 20.5521 60.5521 20.3438 60.5312 20.1562C60.5312 19.9479 60.5312 19.8125 60.5312 19.75C60.5312 19.6667 60.5 19.5104 60.4375 19.2812C60.3958 19.0521 60.3542 18.8958 60.3125 18.8125V18.5625C60.3125 18.2292 60.3958 17.9167 60.5625 17.625C60.7292 17.3333 60.8125 16.9896 60.8125 16.5938V16.2188C60.8125 16.0312 60.7917 15.8542 60.75 15.6875C60.7083 15.5 60.6354 15.3229 60.5312 15.1562V12.9688C60.5312 12.2188 60.5729 11.4896 60.6562 10.7812C60.7604 10.0729 60.8125 9.36458 60.8125 8.65625V8.21875C60.7917 8.19792 60.7604 8.14583 60.7188 8.0625C60.6979 7.95833 60.6667 7.86458 60.625 7.78125C60.6042 7.67708 60.5833 7.58333 60.5625 7.5C60.5417 7.41667 60.5312 7.375 60.5312 7.375C60.5312 7.27083 60.5625 7.11458 60.625 6.90625C60.7083 6.67708 60.7708 6.54167 60.8125 6.5V6.28125C60.8125 5.90625 60.6667 5.54167 60.375 5.1875C60.0833 4.83333 59.7812 4.60417 59.4688 4.5C59.2812 4.47917 58.9479 4.42708 58.4688 4.34375C57.9896 4.26042 57.4896 4.17708 56.9688 4.09375C56.4479 3.98958 55.9479 3.89583 55.4688 3.8125C55.0104 3.72917 54.6875 3.66667 54.5 3.625C54 3.52083 53.6146 3.32292 53.3438 3.03125C53.0938 2.73958 52.9688 2.32292 52.9688 1.78125C52.9688 1.34375 53.1458 1.01042 53.5 0.78125C53.875 0.53125 54.3021 0.354167 54.7812 0.25C55.2604 0.125 55.75 0.0520833 56.25 0.03125C56.75 0.0104167 57.1354 0 57.4062 0H57.7188C57.8021 0 58 0.0208333 58.3125 0.0625C58.6458 0.104167 58.9896 0.145833 59.3438 0.1875C59.7188 0.229167 60.0625 0.270833 60.375 0.3125C60.6875 0.354167 60.8854 0.375 60.9688 0.375C61.0729 0.416667 61.2708 0.4375 61.5625 0.4375C61.8542 0.4375 62.1667 0.4375 62.5 0.4375C62.8125 0.4375 63.1146 0.4375 63.4062 0.4375C63.6979 0.4375 63.9167 0.416667 64.0625 0.375C64.2917 0.520833 64.5417 0.604167 64.8125 0.625C65.1042 0.645833 65.3229 0.65625 65.4688 0.65625C66.3229 0.65625 67.1458 0.572917 67.9375 0.40625C68.7292 0.239583 69.5938 0.15625 70.5312 0.15625H72.2812C72.5312 0.322917 72.7917 0.46875 73.0625 0.59375C73.3333 0.697917 73.5833 0.822917 73.8125 0.96875C74.0625 1.09375 74.2604 1.26042 74.4062 1.46875C74.5729 1.67708 74.6562 1.96875 74.6562 2.34375C74.6562 2.51042 74.625 2.69792 74.5625 2.90625C74.5 3.09375 74.4062 3.28125 74.2812 3.46875C74.1771 3.65625 74.0417 3.8125 73.875 3.9375C73.7083 4.0625 73.5312 4.125 73.3438 4.125C72.8854 4.20833 72.4271 4.27083 71.9688 4.3125C71.5104 4.35417 71.0312 4.375 70.5312 4.375C70.0104 4.375 69.5 4.35417 69 4.3125C68.5 4.27083 67.9896 4.20833 67.4688 4.125C67.4271 4.125 67.3854 4.17708 67.3438 4.28125C67.3229 4.36458 67.3125 4.4375 67.3125 4.5C67.3125 4.54167 67.3229 4.625 67.3438 4.75C67.3646 4.85417 67.375 4.96875 67.375 5.09375C67.3958 5.19792 67.4167 5.30208 67.4375 5.40625C67.4583 5.51042 67.4688 5.5625 67.4688 5.5625V6.0625C67.4688 6.29167 67.4271 6.5 67.3438 6.6875C67.2812 6.875 67.2083 7.0625 67.125 7.25C67.0625 7.4375 66.9896 7.625 66.9062 7.8125C66.8438 7.97917 66.8125 8.16667 66.8125 8.375V8.8125C66.8542 8.875 66.8958 9 66.9375 9.1875C67 9.375 67.0521 9.48958 67.0938 9.53125V10.7812V11.25C67.1146 11.3542 67.1458 11.4479 67.1875 11.5312C67.2708 11.7396 67.3125 11.8646 67.3125 11.9062C67.3542 12.4688 67.3854 13 67.4062 13.5C67.4479 14 67.4688 14.5521 67.4688 15.1562C67.4688 15.8229 67.3542 16.4896 67.125 17.1562C66.9167 17.8021 66.8125 18.4792 66.8125 19.1875V19.25C66.8333 19.2917 66.8646 19.375 66.9062 19.5C66.9688 19.6042 67.0312 19.7292 67.0938 19.875C67.1562 20.0208 67.2083 20.1667 67.25 20.3125C67.2917 20.4375 67.3125 20.5208 67.3125 20.5625V21.6875C67.3125 22.4792 67.2292 23.2604 67.0625 24.0312C66.8958 24.7812 66.8125 25.5521 66.8125 26.3438C66.8125 27.3646 66.8542 28.375 66.9375 29.375C67.0417 30.3542 67.0938 31.3438 67.0938 32.3438V35.0312C67.0521 35.1354 67 35.3333 66.9375 35.625C66.8958 35.8958 66.8542 36.0625 66.8125 36.125C66.8125 36.1458 66.8021 36.2083 66.7812 36.3125C66.7604 36.3958 66.7292 36.4896 66.6875 36.5938C66.6667 36.6771 66.6458 36.7708 66.625 36.875C66.6042 36.9583 66.5938 37.0104 66.5938 37.0312C66.5938 37.0729 66.6042 37.1875 66.625 37.375C66.6458 37.5417 66.6667 37.7396 66.6875 37.9688C66.7083 38.1771 66.7292 38.3854 66.75 38.5938C66.7708 38.7812 66.7917 38.9167 66.8125 39C66.875 39.2917 66.9792 39.5208 67.125 39.6875C67.2708 39.8542 67.4375 39.9896 67.625 40.0938C67.8125 40.1771 68.0208 40.2396 68.25 40.2812C68.4792 40.3229 68.7188 40.375 68.9688 40.4375C68.9896 40.4792 69.0625 40.5208 69.1875 40.5625C69.3333 40.6042 69.4792 40.6562 69.625 40.7188C69.7708 40.7604 69.9062 40.8021 70.0312 40.8438C70.1771 40.8854 70.2708 40.9167 70.3125 40.9375C70.4167 40.9583 70.6042 40.9792 70.875 41C71.1667 41.0208 71.4688 41.0417 71.7812 41.0625C72.1146 41.0833 72.4271 41.1042 72.7188 41.125C73.0104 41.1458 73.2188 41.1562 73.3438 41.1562C73.5312 41.2812 73.6458 41.4062 73.6875 41.5312C73.75 41.6562 73.7812 41.8125 73.7812 42V42.2812C73.7812 42.7604 73.6875 43.1146 73.5 43.3438C73.3333 43.5729 73.0729 43.8542 72.7188 44.1875C72.6562 44.1875 72.5729 44.2188 72.4688 44.2812C72.3646 44.3646 72.3021 44.4062 72.2812 44.4062H72.1562H72C70.4375 44.3021 68.8854 44.1562 67.3438 43.9688C65.8229 43.7812 64.2812 43.6875 62.7188 43.6875Z" fill="white"/>
</g>
<defs>
<clipPath id="clip0_1152_10361">
<rect width="75" height="45" fill="white"/>
</clipPath>
</defs>
</svg>
