<svg width="66" height="47" viewBox="0 0 66 47" fill="none" xmlns="http://www.w3.org/2000/svg">
<g clip-path="url(#clip0_1152_10358)">
<path d="M9.96875 44.5938C8.86458 44.5938 7.77083 44.6458 6.6875 44.75C5.625 44.8333 4.55208 44.875 3.46875 44.875H3.25C3 44.8333 2.6875 44.7917 2.3125 44.75C1.9375 44.6875 1.57292 44.5938 1.21875 44.4688C0.885417 44.3229 0.59375 44.1354 0.34375 43.9062C0.114583 43.6771 0 43.3646 0 42.9688C0 42.8854 0.0104167 42.7708 0.03125 42.625C0.0520833 42.4792 0.114583 42.3646 0.21875 42.2812C0.260417 42.2188 0.364583 42.1667 0.53125 42.125C0.697917 42.0833 0.8125 42.0625 0.875 42.0625C1.45833 42 2.04167 41.9583 2.625 41.9375C3.20833 41.9167 3.78125 41.8542 4.34375 41.75C4.90625 41.6458 5.4375 41.4688 5.9375 41.2188C6.45833 40.9688 6.92708 40.5938 7.34375 40.0938C7.32292 39.1771 7.35417 38.2812 7.4375 37.4062C7.52083 36.5104 7.5625 35.625 7.5625 34.75C7.5625 34.3958 7.52083 34.0729 7.4375 33.7812C7.375 33.4896 7.34375 33.1875 7.34375 32.875V32.3125C7.34375 32.25 7.35417 32.1458 7.375 32C7.39583 31.8542 7.41667 31.6979 7.4375 31.5312C7.47917 31.3438 7.51042 31.1771 7.53125 31.0312C7.55208 30.8854 7.5625 30.7917 7.5625 30.75V26.0625C7.5625 26.0208 7.57292 25.9479 7.59375 25.8438C7.61458 25.7188 7.63542 25.5938 7.65625 25.4688C7.69792 25.3438 7.72917 25.2396 7.75 25.1562C7.77083 25.0521 7.78125 24.9896 7.78125 24.9688C7.78125 24.9271 7.78125 24.8229 7.78125 24.6562C7.80208 24.4688 7.8125 24.2604 7.8125 24.0312C7.8125 23.8021 7.8125 23.5729 7.8125 23.3438C7.83333 23.1146 7.84375 22.9375 7.84375 22.8125C7.84375 22.7292 7.83333 22.5833 7.8125 22.375C7.8125 22.1458 7.8125 21.9167 7.8125 21.6875C7.8125 21.4583 7.80208 21.25 7.78125 21.0625C7.78125 20.8542 7.78125 20.7188 7.78125 20.6562C7.78125 20.5729 7.75 20.4167 7.6875 20.1875C7.64583 19.9583 7.60417 19.8021 7.5625 19.7188V19.4688C7.5625 19.1354 7.64583 18.8229 7.8125 18.5312C7.97917 18.2396 8.0625 17.8958 8.0625 17.5V17.125C8.0625 16.9375 8.04167 16.7604 8 16.5938C7.95833 16.4062 7.88542 16.2292 7.78125 16.0625V13.875C7.78125 13.125 7.82292 12.3958 7.90625 11.6875C8.01042 10.9792 8.0625 10.2708 8.0625 9.5625V9.125C8.04167 9.10417 8.01042 9.05208 7.96875 8.96875C7.94792 8.86458 7.91667 8.77083 7.875 8.6875C7.85417 8.58333 7.83333 8.48958 7.8125 8.40625C7.79167 8.32292 7.78125 8.28125 7.78125 8.28125C7.78125 8.17708 7.8125 8.02083 7.875 7.8125C7.95833 7.58333 8.02083 7.44792 8.0625 7.40625V7.1875C8.0625 6.8125 7.91667 6.44792 7.625 6.09375C7.33333 5.73958 7.03125 5.51042 6.71875 5.40625C6.53125 5.38542 6.19792 5.33333 5.71875 5.25C5.23958 5.16667 4.73958 5.08333 4.21875 5C3.69792 4.89583 3.19792 4.80208 2.71875 4.71875C2.26042 4.63542 1.9375 4.57292 1.75 4.53125C1.25 4.42708 0.864583 4.22917 0.59375 3.9375C0.34375 3.64583 0.21875 3.22917 0.21875 2.6875C0.21875 2.25 0.395833 1.91667 0.75 1.6875C1.125 1.4375 1.55208 1.26042 2.03125 1.15625C2.51042 1.03125 3 0.958333 3.5 0.9375C4 0.916667 4.38542 0.90625 4.65625 0.90625H4.96875C5.05208 0.90625 5.25 0.927083 5.5625 0.96875C5.89583 1.01042 6.23958 1.05208 6.59375 1.09375C6.96875 1.13542 7.3125 1.17708 7.625 1.21875C7.9375 1.26042 8.13542 1.28125 8.21875 1.28125C8.32292 1.32292 8.52083 1.34375 8.8125 1.34375C9.10417 1.34375 9.41667 1.34375 9.75 1.34375C10.0625 1.34375 10.3646 1.34375 10.6562 1.34375C10.9479 1.34375 11.1667 1.32292 11.3125 1.28125C11.5417 1.42708 11.7917 1.51042 12.0625 1.53125C12.3542 1.55208 12.5729 1.5625 12.7188 1.5625C13.5729 1.5625 14.3958 1.47917 15.1875 1.3125C15.9792 1.14583 16.8438 1.0625 17.7812 1.0625H19.5312C19.7812 1.22917 20.0417 1.375 20.3125 1.5C20.5833 1.60417 20.8333 1.72917 21.0625 1.875C21.3125 2 21.5104 2.16667 21.6562 2.375C21.8229 2.58333 21.9062 2.875 21.9062 3.25C21.9062 3.41667 21.875 3.60417 21.8125 3.8125C21.75 4 21.6562 4.1875 21.5312 4.375C21.4271 4.5625 21.2917 4.71875 21.125 4.84375C20.9583 4.96875 20.7812 5.03125 20.5938 5.03125C20.1354 5.11458 19.6771 5.17708 19.2188 5.21875C18.7604 5.26042 18.2812 5.28125 17.7812 5.28125C17.2604 5.28125 16.75 5.26042 16.25 5.21875C15.75 5.17708 15.2396 5.11458 14.7188 5.03125C14.6771 5.03125 14.6354 5.08333 14.5938 5.1875C14.5729 5.27083 14.5625 5.34375 14.5625 5.40625C14.5625 5.44792 14.5729 5.53125 14.5938 5.65625C14.6146 5.76042 14.625 5.875 14.625 6C14.6458 6.10417 14.6667 6.20833 14.6875 6.3125C14.7083 6.41667 14.7188 6.46875 14.7188 6.46875V6.96875C14.7188 7.19792 14.6771 7.40625 14.5938 7.59375C14.5312 7.78125 14.4583 7.96875 14.375 8.15625C14.3125 8.34375 14.2396 8.53125 14.1562 8.71875C14.0938 8.88542 14.0625 9.07292 14.0625 9.28125V9.71875C14.1042 9.78125 14.1458 9.90625 14.1875 10.0938C14.25 10.2812 14.3021 10.3958 14.3438 10.4375V11.6875V12.1562C14.3646 12.2604 14.3958 12.3542 14.4375 12.4375C14.5208 12.6458 14.5625 12.7708 14.5625 12.8125C14.6042 13.375 14.6354 13.9062 14.6562 14.4062C14.6979 14.9062 14.7188 15.4583 14.7188 16.0625C14.7188 16.7292 14.6042 17.3958 14.375 18.0625C14.1667 18.7083 14.0625 19.3854 14.0625 20.0938V20.1562C14.0833 20.1979 14.1146 20.2812 14.1562 20.4062C14.2188 20.5104 14.2812 20.6354 14.3438 20.7812C14.4062 20.9271 14.4583 21.0729 14.5 21.2188C14.5417 21.3438 14.5625 21.4271 14.5625 21.4688V22.5938C14.5625 23.3854 14.4792 24.1667 14.3125 24.9375C14.1458 25.6875 14.0625 26.4583 14.0625 27.25C14.0625 28.2708 14.1042 29.2812 14.1875 30.2812C14.2917 31.2604 14.3438 32.25 14.3438 33.25V35.9375C14.3021 36.0417 14.25 36.2396 14.1875 36.5312C14.1458 36.8021 14.1042 36.9688 14.0625 37.0312C14.0625 37.0521 14.0521 37.1146 14.0312 37.2188C14.0104 37.3021 13.9792 37.3958 13.9375 37.5C13.9167 37.5833 13.8958 37.6771 13.875 37.7812C13.8542 37.8646 13.8438 37.9167 13.8438 37.9375C13.8438 37.9792 13.8542 38.0938 13.875 38.2812C13.8958 38.4479 13.9167 38.6458 13.9375 38.875C13.9583 39.0833 13.9792 39.2917 14 39.5C14.0208 39.6875 14.0417 39.8229 14.0625 39.9062C14.125 40.1979 14.2292 40.4271 14.375 40.5938C14.5208 40.7604 14.6875 40.8958 14.875 41C15.0625 41.0833 15.2708 41.1458 15.5 41.1875C15.7292 41.2292 15.9688 41.2812 16.2188 41.3438C16.2396 41.3854 16.3125 41.4271 16.4375 41.4688C16.5833 41.5104 16.7292 41.5625 16.875 41.625C17.0208 41.6667 17.1562 41.7083 17.2812 41.75C17.4271 41.7917 17.5208 41.8229 17.5625 41.8438C17.6667 41.8646 17.8542 41.8854 18.125 41.9062C18.4167 41.9271 18.7188 41.9479 19.0312 41.9688C19.3646 41.9896 19.6771 42.0104 19.9688 42.0312C20.2604 42.0521 20.4688 42.0625 20.5938 42.0625C20.7812 42.1875 20.8958 42.3125 20.9375 42.4375C21 42.5625 21.0312 42.7188 21.0312 42.9062V43.1875C21.0312 43.6667 20.9375 44.0208 20.75 44.25C20.5833 44.4792 20.3229 44.7604 19.9688 45.0938C19.9062 45.0938 19.8229 45.125 19.7188 45.1875C19.6146 45.2708 19.5521 45.3125 19.5312 45.3125H19.4062H19.25C17.6875 45.2083 16.1354 45.0625 14.5938 44.875C13.0729 44.6875 11.5312 44.5938 9.96875 44.5938ZM43.0938 45.25C43.0521 45.1667 42.9896 45.0104 42.9062 44.7812C42.8438 44.5312 42.7708 44.2812 42.6875 44.0312C42.625 43.7812 42.5625 43.5521 42.5 43.3438C42.4375 43.1146 42.3958 42.9583 42.375 42.875C42.3333 42.7917 42.2917 42.6667 42.25 42.5C42.2292 42.3333 42.2188 42.2188 42.2188 42.1562C42.1979 42.1146 42.1354 42 42.0312 41.8125C41.9479 41.625 41.8542 41.4271 41.75 41.2188C41.6667 40.9896 41.5729 40.7812 41.4688 40.5938C41.3854 40.4062 41.3333 40.2812 41.3125 40.2188C41.2708 40.1771 41.2292 40.0312 41.1875 39.7812C41.1458 39.5312 41.125 39.3854 41.125 39.3438C41.1042 39.3438 41.0521 39.3021 40.9688 39.2188C40.9062 39.1354 40.8333 39.0521 40.75 38.9688C40.6875 38.8646 40.625 38.7708 40.5625 38.6875C40.5 38.5833 40.4583 38.5208 40.4375 38.5C40.4167 38.4792 40.3958 38.4167 40.375 38.3125C40.3542 38.1875 40.3333 38.0625 40.3125 37.9375C40.2917 37.8125 40.2708 37.6979 40.25 37.5938C40.2292 37.4896 40.2188 37.4271 40.2188 37.4062C40.2188 37.3646 40.1562 37.2083 40.0312 36.9375C39.9271 36.6667 39.8438 36.4583 39.7812 36.3125C39.3021 35.1875 38.875 34.0104 38.5 32.7812C38.1458 31.5312 37.7812 30.3125 37.4062 29.125C37.2396 28.5625 37.0417 27.9896 36.8125 27.4062C36.5833 26.8021 36.3438 26.2292 36.0938 25.6875C36.0938 25.6667 36.0625 25.5938 36 25.4688C35.9375 25.3229 35.8646 25.1771 35.7812 25.0312C35.6979 24.8854 35.625 24.75 35.5625 24.625C35.5 24.4792 35.4688 24.375 35.4688 24.3125C35.4271 24.2917 35.3958 24.2083 35.375 24.0625C35.3542 23.9167 35.3333 23.7604 35.3125 23.5938C35.2917 23.4271 35.2708 23.2708 35.25 23.125C35.25 22.9792 35.25 22.8958 35.25 22.875C35.2083 22.5833 35.1562 22.3125 35.0938 22.0625C35.0521 21.7917 34.9583 21.5312 34.8125 21.2812C34.7917 21.2812 34.7396 21.2396 34.6562 21.1562C34.5938 21.0729 34.5208 20.9896 34.4375 20.9062C34.375 20.8021 34.3125 20.7083 34.25 20.625C34.1875 20.5417 34.1562 20.5 34.1562 20.5C34.1354 20.4375 34.1146 20.3229 34.0938 20.1562C34.0729 19.9688 34.0521 19.7812 34.0312 19.5938C34.0104 19.3854 33.9896 19.2083 33.9688 19.0625C33.9479 18.8958 33.9375 18.7917 33.9375 18.75C33.9375 18.7083 33.9167 18.6354 33.875 18.5312C33.8333 18.4062 33.7917 18.2812 33.75 18.1562C33.7083 18.0104 33.6562 17.875 33.5938 17.75C33.5521 17.625 33.5104 17.5312 33.4688 17.4688C33.3854 17.2188 33.2292 16.8021 33 16.2188C32.7708 15.6354 32.5312 15.0208 32.2812 14.375C32.0312 13.7292 31.7917 13.125 31.5625 12.5625C31.3542 11.9792 31.2083 11.5729 31.125 11.3438C31.125 11.2604 31.0938 11.0833 31.0312 10.8125C30.9896 10.5417 30.9479 10.3646 30.9062 10.2812C30.9062 10.2604 30.8646 10.1875 30.7812 10.0625C30.7188 9.91667 30.6458 9.77083 30.5625 9.625C30.5 9.45833 30.4271 9.3125 30.3438 9.1875C30.2812 9.04167 30.2396 8.94792 30.2188 8.90625V8.3125C30.2188 8.20833 30.1875 8.05208 30.125 7.84375C30.0833 7.61458 30.0625 7.48958 30.0625 7.46875C30.0208 7.44792 29.9375 7.36458 29.8125 7.21875C29.6875 7.05208 29.5417 6.875 29.375 6.6875C29.2083 6.47917 29.0417 6.27083 28.875 6.0625C28.7083 5.83333 28.5833 5.64583 28.5 5.5C28.3958 5.3125 28.2812 5.19792 28.1562 5.15625C28.0312 5.11458 27.8542 5.07292 27.625 5.03125C27.5833 5.03125 27.5104 5.02083 27.4062 5C27.3021 4.97917 27.1875 4.95833 27.0625 4.9375C26.9583 4.91667 26.8438 4.89583 26.7188 4.875C26.6146 4.85417 26.5521 4.83333 26.5312 4.8125C26.5104 4.8125 26.4583 4.80208 26.375 4.78125C26.2917 4.76042 26.1979 4.73958 26.0938 4.71875C26.0104 4.67708 25.9271 4.64583 25.8438 4.625C25.7812 4.60417 25.7396 4.59375 25.7188 4.59375C25.6771 4.59375 25.5833 4.59375 25.4375 4.59375C25.3125 4.57292 25.1771 4.55208 25.0312 4.53125C24.8854 4.51042 24.7396 4.48958 24.5938 4.46875C24.4688 4.44792 24.3958 4.4375 24.375 4.4375C24.3125 4.39583 24.2188 4.32292 24.0938 4.21875C23.9688 4.09375 23.8333 3.95833 23.6875 3.8125C23.5417 3.66667 23.4167 3.53125 23.3125 3.40625C23.1875 3.28125 23.1146 3.1875 23.0938 3.125V2.875C23.0938 2.45833 23.2083 2.13542 23.4375 1.90625C23.6458 1.65625 23.9167 1.46875 24.25 1.34375C24.6042 1.21875 24.9792 1.14583 25.375 1.125C25.7708 1.08333 26.1458 1.0625 26.5 1.0625H27.125C27.4583 1.0625 27.7604 1.07292 28.0312 1.09375C28.3021 1.11458 28.6146 1.19792 28.9688 1.34375H33.6875C34.0625 1.15625 34.4271 1.04167 34.7812 1C35.1354 0.9375 35.4896 0.90625 35.8438 0.90625H37.0312H37.625C37.6458 0.90625 37.7083 0.895833 37.8125 0.875C37.9167 0.854167 38.0312 0.833333 38.1562 0.8125C38.2812 0.770833 38.3958 0.739583 38.5 0.71875C38.6042 0.697917 38.6771 0.6875 38.7188 0.6875H39.125C39.2917 0.6875 39.4792 0.708333 39.6875 0.75C39.8958 0.791667 40.0833 0.854167 40.25 0.9375C40.4375 1.02083 40.5938 1.13542 40.7188 1.28125C40.8438 1.40625 40.9062 1.57292 40.9062 1.78125C40.9062 2.36458 40.7812 2.79167 40.5312 3.0625C40.3021 3.3125 40.0104 3.48958 39.6562 3.59375C39.3021 3.69792 38.9167 3.76042 38.5 3.78125C38.0833 3.78125 37.6979 3.82292 37.3438 3.90625C36.9896 3.98958 36.6875 4.15625 36.4375 4.40625C36.2083 4.63542 36.0938 5.02083 36.0938 5.5625C36.0938 6.08333 36.1771 6.52083 36.3438 6.875C36.5312 7.22917 36.6562 7.625 36.7188 8.0625C36.7396 8.125 36.7604 8.23958 36.7812 8.40625C36.8021 8.55208 36.8229 8.70833 36.8438 8.875C36.8646 9.04167 36.8854 9.19792 36.9062 9.34375C36.9271 9.48958 36.9479 9.58333 36.9688 9.625C36.9896 9.6875 37.0521 9.84375 37.1562 10.0938C37.2812 10.3229 37.3958 10.5729 37.5 10.8438C37.625 11.0938 37.7396 11.3333 37.8438 11.5625C37.9479 11.7917 38.0208 11.9375 38.0625 12C38.0625 12.0208 38.0729 12.0833 38.0938 12.1875C38.1146 12.2708 38.1354 12.375 38.1562 12.5C38.1979 12.6042 38.2292 12.7188 38.25 12.8438C38.2708 12.9479 38.2812 13.0208 38.2812 13.0625V14.5938C38.3021 14.9479 38.4479 15.2812 38.7188 15.5938C39.0104 15.9062 39.2188 16.2396 39.3438 16.5938C39.3854 16.6354 39.4271 16.7396 39.4688 16.9062C39.5312 17.0521 39.5625 17.1458 39.5625 17.1875C39.5833 17.2083 39.6042 17.2812 39.625 17.4062C39.6458 17.5104 39.6667 17.625 39.6875 17.75C39.7083 17.875 39.7292 17.9896 39.75 18.0938C39.7708 18.1979 39.7812 18.2604 39.7812 18.2812C40.0521 18.9896 40.3646 19.6771 40.7188 20.3438C41.0729 21.0104 41.3333 21.7083 41.5 22.4375C41.5208 22.4583 41.5417 22.5312 41.5625 22.6562C41.5833 22.7812 41.6042 22.9271 41.625 23.0938C41.6458 23.2396 41.6667 23.375 41.6875 23.5C41.7083 23.625 41.7188 23.6979 41.7188 23.7188C41.7396 23.7604 41.7812 23.8438 41.8438 23.9688C41.9062 24.0729 41.9688 24.1979 42.0312 24.3438C42.1146 24.4688 42.1875 24.6042 42.25 24.75C42.3125 24.875 42.3542 24.9688 42.375 25.0312C42.4375 25.0729 42.5625 25.2188 42.75 25.4688C42.9375 25.6979 43.0521 25.8438 43.0938 25.9062C43.0938 25.9062 43.1042 25.9792 43.125 26.125C43.1667 26.2708 43.1979 26.4375 43.2188 26.625C43.2604 26.8125 43.3021 27.0104 43.3438 27.2188C43.3854 27.4062 43.4271 27.5625 43.4688 27.6875C43.4688 27.6875 43.4792 27.7396 43.5 27.8438C43.5208 27.9479 43.5417 28.0625 43.5625 28.1875C43.6042 28.2917 43.6354 28.4062 43.6562 28.5312C43.6771 28.6354 43.6875 28.7083 43.6875 28.75C43.75 28.8542 43.8333 29.0312 43.9375 29.2812C44.0625 29.5104 44.1875 29.7708 44.3125 30.0625C44.4583 30.3333 44.5938 30.5938 44.7188 30.8438C44.8646 31.0729 44.9688 31.2292 45.0312 31.3125C45.0729 31.4167 45.1667 31.5521 45.3125 31.7188C45.4792 31.8646 45.5833 31.9583 45.625 32C45.6667 32.0208 45.7292 32.0312 45.8125 32.0312C45.8542 32.0521 45.9062 32.0625 45.9688 32.0625C46.0312 32.0625 46.0833 32.0625 46.125 32.0625H46.1875C46.25 32.0625 46.3021 32.0521 46.3438 32.0312C46.4062 32.0312 46.4688 32.0208 46.5312 32C46.5938 31.9583 46.7292 31.8229 46.9375 31.5938C47.1667 31.3646 47.3229 31.1979 47.4062 31.0938C47.6979 30.6354 47.9062 30.1979 48.0312 29.7812C48.1771 29.3438 48.2812 28.9062 48.3438 28.4688C48.4271 28.0312 48.5 27.5833 48.5625 27.125C48.625 26.6667 48.7292 26.1875 48.875 25.6875C48.9167 25.6042 48.9583 25.5 49 25.375C49.0625 25.2292 49.1146 25.0833 49.1562 24.9375C49.1979 24.7917 49.2396 24.6667 49.2812 24.5625C49.3229 24.4375 49.3438 24.3542 49.3438 24.3125C49.3646 24.2917 49.4167 24.2083 49.5 24.0625C49.5833 23.8958 49.6771 23.7188 49.7812 23.5312C49.8854 23.3438 49.9792 23.1667 50.0625 23C50.1458 22.8333 50.1979 22.7188 50.2188 22.6562C50.2396 22.5938 50.2604 22.4271 50.2812 22.1562C50.3021 21.8646 50.3229 21.5625 50.3438 21.25C50.3646 20.9167 50.375 20.6146 50.375 20.3438C50.3958 20.0729 50.4167 19.9062 50.4375 19.8438C50.4375 19.8021 50.4688 19.7083 50.5312 19.5625C50.5938 19.4167 50.6667 19.2604 50.75 19.0938C50.8333 18.9062 50.9062 18.7396 50.9688 18.5938C51.0521 18.4271 51.1042 18.3229 51.125 18.2812C51.125 18.2396 51.1354 18.125 51.1562 17.9375C51.1979 17.7292 51.2396 17.5208 51.2812 17.3125C51.3438 17.0833 51.3958 16.875 51.4375 16.6875C51.4792 16.5 51.5104 16.3958 51.5312 16.375C51.6979 15.7083 51.875 15.0521 52.0625 14.4062C52.2708 13.7396 52.4479 13.0833 52.5938 12.4375C52.5938 12.3958 52.6042 12.2917 52.625 12.125C52.6458 11.9583 52.6667 11.7812 52.6875 11.5938C52.7292 11.3854 52.7604 11.1979 52.7812 11.0312C52.8021 10.8646 52.8125 10.75 52.8125 10.6875C52.8333 10.6458 52.8646 10.5729 52.9062 10.4688C52.9479 10.3646 52.9896 10.2604 53.0312 10.1562C53.0938 10.0312 53.1458 9.91667 53.1875 9.8125C53.2292 9.70833 53.2708 9.64583 53.3125 9.625V8.90625V8.0625C53.2708 7.95833 53.2396 7.80208 53.2188 7.59375C53.1979 7.38542 53.1771 7.17708 53.1562 6.96875C53.1354 6.76042 53.1146 6.58333 53.0938 6.4375C53.0729 6.27083 53.0521 6.17708 53.0312 6.15625C52.9479 5.82292 52.7917 5.4375 52.5625 5C52.3333 4.5625 52.0521 4.20833 51.7188 3.9375C51.4062 3.72917 51.0625 3.61458 50.6875 3.59375C50.3333 3.55208 49.9896 3.51042 49.6562 3.46875C49.3229 3.42708 49.0417 3.32292 48.8125 3.15625C48.6042 2.96875 48.5 2.61458 48.5 2.09375C48.5 1.67708 48.6667 1.30208 49 0.96875C49.3333 0.635417 49.7083 0.46875 50.125 0.46875C50.3125 0.46875 50.5 0.510417 50.6875 0.59375C50.875 0.65625 51.0625 0.6875 51.25 0.6875H51.5312C51.7396 0.6875 52.0521 0.6875 52.4688 0.6875C52.8854 0.666667 53.3542 0.65625 53.875 0.65625C54.4167 0.635417 54.9688 0.614583 55.5312 0.59375C56.1146 0.572917 56.6667 0.5625 57.1875 0.5625C57.7292 0.541667 58.2083 0.53125 58.625 0.53125C59.0417 0.510417 59.3542 0.489583 59.5625 0.46875C59.6042 0.447917 59.7083 0.40625 59.875 0.34375C60.0417 0.28125 60.1354 0.25 60.1562 0.25H62.5938C62.6354 0.25 62.7708 0.229167 63 0.1875C63.25 0.125 63.4062 0.09375 63.4688 0.09375C63.4896 0.09375 63.5208 0.0833333 63.5625 0.0625C63.6042 0.0208333 63.6458 0 63.6875 0C63.8125 0 63.9271 0.0208333 64.0312 0.0625C64.1354 0.104167 64.25 0.166667 64.375 0.25C64.4583 0.354167 64.5729 0.479167 64.7188 0.625C64.8646 0.770833 65 0.916667 65.125 1.0625C65.2708 1.1875 65.3854 1.30208 65.4688 1.40625C65.5729 1.48958 65.625 1.54167 65.625 1.5625V1.78125C65.625 1.80208 65.5729 1.875 65.4688 2C65.3854 2.10417 65.2708 2.22917 65.125 2.375C65 2.52083 64.8646 2.66667 64.7188 2.8125C64.5729 2.9375 64.4583 3.04167 64.375 3.125C64.0417 3.375 63.6667 3.58333 63.25 3.75C62.8542 3.89583 62.4479 4.04167 62.0312 4.1875C61.6354 4.3125 61.2396 4.45833 60.8438 4.625C60.4479 4.79167 60.0938 5.01042 59.7812 5.28125C59.5312 5.48958 59.3125 5.6875 59.125 5.875C58.9583 6.04167 58.8125 6.22917 58.6875 6.4375C58.5625 6.625 58.4479 6.83333 58.3438 7.0625C58.2396 7.29167 58.125 7.55208 58 7.84375C57.9792 7.90625 57.9167 8.04167 57.8125 8.25C57.7083 8.45833 57.5938 8.6875 57.4688 8.9375C57.3438 9.1875 57.2188 9.41667 57.0938 9.625C56.9896 9.83333 56.9375 9.95833 56.9375 10V11.125V11.5625L56.875 11.75C56.8542 11.7917 56.8229 11.8333 56.7812 11.875C56.7604 11.9167 56.7396 11.9583 56.7188 12C56.6771 12.0417 56.6042 12.1562 56.5 12.3438C56.4167 12.5104 56.3646 12.6146 56.3438 12.6562C56.2604 13.2812 56.1562 13.8542 56.0312 14.375C55.9062 14.8958 55.7604 15.4167 55.5938 15.9375C55.4479 16.4375 55.2812 16.9479 55.0938 17.4688C54.9062 17.9896 54.7188 18.5417 54.5312 19.125C54.5312 19.1458 54.5208 19.2083 54.5 19.3125C54.4792 19.3958 54.4583 19.5 54.4375 19.625C54.4375 19.7292 54.4271 19.8438 54.4062 19.9688C54.3854 20.0729 54.375 20.1562 54.375 20.2188C54.3542 20.2812 54.3229 20.3958 54.2812 20.5625C54.2604 20.7083 54.2396 20.8646 54.2188 21.0312C54.1979 21.1979 54.1771 21.3542 54.1562 21.5C54.1354 21.6458 54.125 21.7396 54.125 21.7812C54.125 21.8438 54.0833 21.9688 54 22.1562C53.9375 22.3438 53.8542 22.5521 53.75 22.7812C53.6667 22.9896 53.5833 23.2083 53.5 23.4375C53.4167 23.6458 53.3542 23.8125 53.3125 23.9375C53.2708 24 53.1979 24.1146 53.0938 24.2812C53.0104 24.4479 52.9167 24.6354 52.8125 24.8438C52.7292 25.0312 52.6354 25.2083 52.5312 25.375C52.4479 25.5417 52.3958 25.6458 52.375 25.6875V25.9062V26.3125C52.3542 26.3542 52.3021 26.4271 52.2188 26.5312C52.1354 26.6354 52.0417 26.75 51.9375 26.875C51.8333 26.9792 51.7396 27.0938 51.6562 27.2188C51.5729 27.3229 51.5312 27.3854 51.5312 27.4062C51.3646 27.7188 51.2396 28.0833 51.1562 28.5C51.0938 28.8958 51.0312 29.3125 50.9688 29.75C50.9271 30.1667 50.8854 30.5833 50.8438 31C50.8021 31.4167 50.7396 31.8021 50.6562 32.1562C50.6146 32.2396 50.5625 32.375 50.5 32.5625C50.4583 32.7292 50.4375 32.8333 50.4375 32.875C50.0208 33.6875 49.6458 34.5104 49.3125 35.3438C48.9792 36.1562 48.6354 36.9896 48.2812 37.8438C48.1354 38.1771 47.9583 38.5104 47.75 38.8438C47.5625 39.1562 47.4479 39.4896 47.4062 39.8438C47.3854 39.8854 47.3646 40.0208 47.3438 40.25C47.3229 40.4792 47.3021 40.7292 47.2812 41C47.2812 41.2708 47.2708 41.5208 47.25 41.75C47.2292 41.9792 47.2083 42.1146 47.1875 42.1562C47.1667 42.1979 47.1146 42.2812 47.0312 42.4062C46.9479 42.5312 46.8542 42.6667 46.75 42.8125C46.6458 42.9583 46.5521 43.1042 46.4688 43.25C46.3854 43.375 46.3333 43.4479 46.3125 43.4688C46.1875 43.7188 46.1042 44.0104 46.0625 44.3438C46.0208 44.6771 45.9583 44.9896 45.875 45.2812C45.8125 45.5729 45.6771 45.8125 45.4688 46C45.2812 46.2083 44.9688 46.3125 44.5312 46.3125C44.2396 46.3125 43.9583 46.1771 43.6875 45.9062C43.4167 45.6562 43.2188 45.4375 43.0938 45.25Z" fill="white"/>
</g>
<defs>
<clipPath id="clip0_1152_10358">
<rect width="66" height="47" fill="white"/>
</clipPath>
</defs>
</svg>
